<svg width="16" height="16" viewBox="0 0 16 16" fill="none" xmlns="http://www.w3.org/2000/svg">
<path fill-rule="evenodd" clip-rule="evenodd" d="M11.3703 2.03697C11.7141 1.69315 12.1804 1.5 12.6667 1.5C13.1529 1.5 13.6192 1.69315 13.963 2.03697C14.3068 2.38079 14.5 2.8471 14.5 3.33333C14.5 3.81956 14.3068 4.28588 13.963 4.6297C13.6192 4.97351 13.1529 5.16667 12.6667 5.16667C12.1804 5.16667 11.7141 4.97351 11.3703 4.6297C11.0265 4.28588 10.8333 3.81956 10.8333 3.33333C10.8333 2.8471 11.0265 2.38079 11.3703 2.03697ZM12.6667 2.5C12.4457 2.5 12.2337 2.5878 12.0774 2.74408C11.9211 2.90036 11.8333 3.11232 11.8333 3.33333C11.8333 3.55435 11.9211 3.76631 12.0774 3.92259C12.2337 4.07887 12.4457 4.16667 12.6667 4.16667C12.8877 4.16667 13.0996 4.07887 13.2559 3.92259C13.4122 3.76631 13.5 3.55435 13.5 3.33333C13.5 3.11232 13.4122 2.90036 13.2559 2.74408C13.0996 2.5878 12.8877 2.5 12.6667 2.5ZM5.66667 3.83333C5.18044 3.83333 4.71412 4.02649 4.3703 4.3703C4.02649 4.71412 3.83333 5.18044 3.83333 5.66667C3.83333 6.1529 4.02649 6.61921 4.3703 6.96303C4.71412 7.30685 5.18044 7.5 5.66667 7.5H11C11.7514 7.5 12.4721 7.79851 13.0035 8.32986C13.5348 8.86122 13.8333 9.58189 13.8333 10.3333C13.8333 11.0848 13.5348 11.8054 13.0035 12.3368C12.4721 12.8682 11.7514 13.1667 11 13.1667H7.33333C7.05719 13.1667 6.83333 12.9428 6.83333 12.6667C6.83333 12.3905 7.05719 12.1667 7.33333 12.1667H11C11.4862 12.1667 11.9525 11.9735 12.2964 11.6297C12.6402 11.2859 12.8333 10.8196 12.8333 10.3333C12.8333 9.8471 12.6402 9.38079 12.2964 9.03697C11.9525 8.69315 11.4862 8.5 11 8.5H5.66667C4.91522 8.5 4.19455 8.20149 3.6632 7.67014C3.13184 7.13878 2.83333 6.41811 2.83333 5.66667C2.83333 4.91522 3.13184 4.19455 3.6632 3.6632C4.19455 3.13184 4.91522 2.83333 5.66667 2.83333H8.66667C8.94281 2.83333 9.16667 3.05719 9.16667 3.33333C9.16667 3.60948 8.94281 3.83333 8.66667 3.83333H5.66667ZM2.03697 11.3703C2.38079 11.0265 2.8471 10.8333 3.33333 10.8333C3.81956 10.8333 4.28588 11.0265 4.6297 11.3703C4.97351 11.7141 5.16667 12.1804 5.16667 12.6667C5.16667 13.1529 4.97351 13.6192 4.6297 13.963C4.28588 14.3068 3.81956 14.5 3.33333 14.5C2.8471 14.5 2.38079 14.3068 2.03697 13.963C1.69315 13.6192 1.5 13.1529 1.5 12.6667C1.5 12.1804 1.69315 11.7141 2.03697 11.3703ZM3.33333 11.8333C3.11232 11.8333 2.90036 11.9211 2.74408 12.0774C2.5878 12.2337 2.5 12.4457 2.5 12.6667C2.5 12.8877 2.5878 13.0996 2.74408 13.2559C2.90036 13.4122 3.11232 13.5 3.33333 13.5C3.55435 13.5 3.76631 13.4122 3.92259 13.2559C4.07887 13.0996 4.16667 12.8877 4.16667 12.6667C4.16667 12.4457 4.07887 12.2337 3.92259 12.0774C3.76631 11.9211 3.55435 11.8333 3.33333 11.8333Z" fill="#1B1C20"/>
</svg>
